<svg width="219" height="29" viewBox="0 0 219 29" fill="none" xmlns="http://www.w3.org/2000/svg">
<path d="M0.764122 1.8H5.94812V22.464H15.9921V27H0.764122V1.8ZM16.5749 14.4C16.5749 12.48 16.9109 10.728 17.5829 9.144C18.2549 7.536 19.1909 6.156 20.3909 5.004C21.6149 3.828 23.0309 2.916 24.6389 2.268C26.2469 1.62 27.9989 1.296 29.8949 1.296C31.8149 1.296 33.5789 1.62 35.1869 2.268C36.7949 2.916 38.1989 3.828 39.3989 5.004C40.6229 6.156 41.5589 7.536 42.2069 9.144C42.8789 10.728 43.2149 12.48 43.2149 14.4C43.2149 16.296 42.8789 18.06 42.2069 19.692C41.5589 21.3 40.6349 22.704 39.4349 23.904C38.2589 25.08 36.8549 26.004 35.2229 26.676C33.6149 27.324 31.8389 27.648 29.8949 27.648C27.9509 27.648 26.1629 27.324 24.5309 26.676C22.9229 26.004 21.5189 25.08 20.3189 23.904C19.1429 22.704 18.2189 21.3 17.5469 19.692C16.8989 18.06 16.5749 16.296 16.5749 14.4ZM22.0469 14.4C22.0469 16.008 22.3709 17.436 23.0189 18.684C23.6909 19.932 24.6149 20.916 25.7909 21.636C26.9909 22.332 28.3589 22.68 29.8949 22.68C31.4549 22.68 32.8229 22.332 33.9989 21.636C35.1749 20.916 36.0869 19.932 36.7349 18.684C37.4069 17.436 37.7429 16.008 37.7429 14.4C37.7429 12.792 37.4189 11.364 36.7709 10.116C36.1229 8.868 35.2109 7.896 34.0349 7.2C32.8589 6.48 31.4789 6.12 29.8949 6.12C28.3589 6.12 26.9909 6.48 25.7909 7.2C24.6149 7.896 23.6909 8.868 23.0189 10.116C22.3709 11.364 22.0469 12.792 22.0469 14.4ZM59.6346 17.64V13.536H72.0906C72.1626 15.456 71.9346 17.268 71.4066 18.972C70.8786 20.676 70.0746 22.176 68.9946 23.472C67.9146 24.768 66.5706 25.788 64.9626 26.532C63.3546 27.276 61.5066 27.648 59.4186 27.648C56.8026 27.648 54.4746 27.096 52.4346 25.992C50.4186 24.864 48.8346 23.304 47.6826 21.312C46.5306 19.32 45.9546 17.016 45.9546 14.4C45.9546 11.784 46.5426 9.492 47.7186 7.524C48.8946 5.556 50.5026 4.032 52.5426 2.952C54.6066 1.848 56.9466 1.296 59.5626 1.296C62.1306 1.296 64.3386 1.824 66.1866 2.88C68.0346 3.912 69.5346 5.304 70.6866 7.056L66.2586 9.648C65.6106 8.568 64.7346 7.68 63.6306 6.984C62.5506 6.264 61.1946 5.904 59.5626 5.904C58.0506 5.904 56.6706 6.252 55.4226 6.948C54.1746 7.62 53.1786 8.592 52.4346 9.864C51.7146 11.136 51.3546 12.648 51.3546 14.4C51.3546 16.152 51.7146 17.676 52.4346 18.972C53.1546 20.268 54.1266 21.276 55.3506 21.996C56.5986 22.692 58.0026 23.04 59.5626 23.04C61.6266 23.04 63.2466 22.524 64.4226 21.492C65.6226 20.436 66.4266 19.152 66.8346 17.64H59.6346ZM75.0179 14.4C75.0179 12.48 75.3539 10.728 76.0259 9.144C76.6979 7.536 77.6339 6.156 78.8339 5.004C80.0579 3.828 81.4739 2.916 83.0819 2.268C84.6899 1.62 86.4419 1.296 88.3379 1.296C90.2579 1.296 92.0219 1.62 93.6299 2.268C95.2379 2.916 96.6419 3.828 97.8419 5.004C99.0659 6.156 100.002 7.536 100.65 9.144C101.322 10.728 101.658 12.48 101.658 14.4C101.658 16.296 101.322 18.06 100.65 19.692C100.002 21.3 99.0779 22.704 97.8779 23.904C96.7019 25.08 95.2979 26.004 93.6659 26.676C92.0579 27.324 90.2819 27.648 88.3379 27.648C86.3939 27.648 84.6059 27.324 82.9739 26.676C81.3659 26.004 79.9619 25.08 78.7619 23.904C77.5859 22.704 76.6619 21.3 75.9899 19.692C75.3419 18.06 75.0179 16.296 75.0179 14.4ZM80.4899 14.4C80.4899 16.008 80.8139 17.436 81.4619 18.684C82.1339 19.932 83.0579 20.916 84.2339 21.636C85.4339 22.332 86.8019 22.68 88.3379 22.68C89.8979 22.68 91.2659 22.332 92.4419 21.636C93.6179 20.916 94.5299 19.932 95.1779 18.684C95.8499 17.436 96.1859 16.008 96.1859 14.4C96.1859 12.792 95.8619 11.364 95.2139 10.116C94.5659 8.868 93.6539 7.896 92.4779 7.2C91.3019 6.48 89.9219 6.12 88.3379 6.12C86.8019 6.12 85.4339 6.48 84.2339 7.2C83.0579 7.896 82.1339 8.868 81.4619 10.116C80.8139 11.364 80.4899 12.792 80.4899 14.4ZM134.723 1.8H139.727V28.26L121.871 11.448V27H116.831V0.539999L134.723 17.352V1.8ZM162.394 27L159.766 21.312H151.126L148.534 27H142.666L155.446 0.287998L168.262 27H162.394ZM155.446 10.008L152.35 17.208H158.542L155.446 10.008ZM176.811 12.924L175.155 27H169.755L173.499 0.539999L184.083 16.776L194.595 0.539999L198.411 27H192.975L191.355 12.924L184.083 24.66L176.811 12.924ZM202.579 1.8H218.635V6.192H207.619V11.484H217.915V15.768H207.619V22.608H218.635V27H202.579V1.8Z" fill="#7338F6"/>
</svg>
